<?xml version="1.0" encoding="UTF-8"?>
<!--Generator: Apple Native CoreSVG 123-->
<!DOCTYPE svg
PUBLIC "-//W3C//DTD SVG 1.1//EN"
       "http://www.w3.org/Graphics/SVG/1.1/DTD/svg11.dtd">
<svg version="1.1" xmlns="http://www.w3.org/2000/svg" xmlns:xlink="http://www.w3.org/1999/xlink" width="3300" height="2200">
 <!--glyph: "uni100033.medium", point size: 100.000000, font version: "Version 15.0d7e11", template writer version: "5"-->
 <g id="Notes">
  <rect height="2200" id="artboard" style="fill:white;opacity:1" width="3300" x="0" y="0"/>
  <line id="" style="fill:none;stroke:black;opacity:1;stroke-width:0.5;" x1="263" x2="3036" y1="292" y2="292"/>
  <text style="stroke:none;fill:black;font-family:-apple-system,&quot;SF Pro Display&quot;,&quot;SF Pro Text&quot;,Helvetica,sans-serif;font-weight:bold;" transform="matrix(1 0 0 1 263 322)">Weight/Scale Variations</text>
  <text style="stroke:none;fill:black;font-family:-apple-system,&quot;SF Pro Display&quot;,&quot;SF Pro Text&quot;,Helvetica,sans-serif;text-anchor:middle;" transform="matrix(1 0 0 1 559.711 322)">Ultralight</text>
  <text style="stroke:none;fill:black;font-family:-apple-system,&quot;SF Pro Display&quot;,&quot;SF Pro Text&quot;,Helvetica,sans-serif;text-anchor:middle;" transform="matrix(1 0 0 1 856.422 322)">Thin</text>
  <text style="stroke:none;fill:black;font-family:-apple-system,&quot;SF Pro Display&quot;,&quot;SF Pro Text&quot;,Helvetica,sans-serif;text-anchor:middle;" transform="matrix(1 0 0 1 1153.13 322)">Light</text>
  <text style="stroke:none;fill:black;font-family:-apple-system,&quot;SF Pro Display&quot;,&quot;SF Pro Text&quot;,Helvetica,sans-serif;text-anchor:middle;" transform="matrix(1 0 0 1 1449.84 322)">Regular</text>
  <text style="stroke:none;fill:black;font-family:-apple-system,&quot;SF Pro Display&quot;,&quot;SF Pro Text&quot;,Helvetica,sans-serif;text-anchor:middle;" transform="matrix(1 0 0 1 1746.56 322)">Medium</text>
  <text style="stroke:none;fill:black;font-family:-apple-system,&quot;SF Pro Display&quot;,&quot;SF Pro Text&quot;,Helvetica,sans-serif;text-anchor:middle;" transform="matrix(1 0 0 1 2043.27 322)">Semibold</text>
  <text style="stroke:none;fill:black;font-family:-apple-system,&quot;SF Pro Display&quot;,&quot;SF Pro Text&quot;,Helvetica,sans-serif;text-anchor:middle;" transform="matrix(1 0 0 1 2339.98 322)">Bold</text>
  <text style="stroke:none;fill:black;font-family:-apple-system,&quot;SF Pro Display&quot;,&quot;SF Pro Text&quot;,Helvetica,sans-serif;text-anchor:middle;" transform="matrix(1 0 0 1 2636.69 322)">Heavy</text>
  <text style="stroke:none;fill:black;font-family:-apple-system,&quot;SF Pro Display&quot;,&quot;SF Pro Text&quot;,Helvetica,sans-serif;text-anchor:middle;" transform="matrix(1 0 0 1 2933.4 322)">Black</text>
  <line id="" style="fill:none;stroke:black;opacity:1;stroke-width:0.5;" x1="263" x2="3036" y1="1903" y2="1903"/>
  <g id="" transform="matrix(1 0 0 1 263 1933)">
   <path d="M 9.24805 0.830078 C 13.5547 0.830078 17.1387 -2.74414 17.1387 -7.05078 C 17.1387 -11.3574 13.5449 -14.9316 9.23828 -14.9316 C 4.94141 -14.9316 1.36719 -11.3574 1.36719 -7.05078 C 1.36719 -2.74414 4.95117 0.830078 9.24805 0.830078 Z M 9.24805 -0.654297 C 5.70312 -0.654297 2.87109 -3.49609 2.87109 -7.05078 C 2.87109 -10.6055 5.69336 -13.4473 9.23828 -13.4473 C 12.793 -13.4473 15.6348 -10.6055 15.6445 -7.05078 C 15.6543 -3.49609 12.8027 -0.654297 9.24805 -0.654297 Z M 9.22852 -3.42773 C 9.69727 -3.42773 9.9707 -3.74023 9.9707 -4.25781 L 9.9707 -6.31836 L 12.1973 -6.31836 C 12.6953 -6.31836 13.0371 -6.57227 13.0371 -7.04102 C 13.0371 -7.51953 12.7148 -7.7832 12.1973 -7.7832 L 9.9707 -7.7832 L 9.9707 -10.0098 C 9.9707 -10.5273 9.69727 -10.8496 9.22852 -10.8496 C 8.75977 -10.8496 8.50586 -10.5078 8.50586 -10.0098 L 8.50586 -7.7832 L 6.29883 -7.7832 C 5.78125 -7.7832 5.44922 -7.51953 5.44922 -7.04102 C 5.44922 -6.57227 5.80078 -6.31836 6.29883 -6.31836 L 8.50586 -6.31836 L 8.50586 -4.25781 C 8.50586 -3.75977 8.75977 -3.42773 9.22852 -3.42773 Z"/>
  </g>
  <g id="" transform="matrix(1 0 0 1 281.506 1933)">
   <path d="M 11.709 2.91016 C 17.1582 2.91016 21.6699 -1.60156 21.6699 -7.05078 C 21.6699 -12.4902 17.1484 -17.0117 11.6992 -17.0117 C 6.25977 -17.0117 1.74805 -12.4902 1.74805 -7.05078 C 1.74805 -1.60156 6.26953 2.91016 11.709 2.91016 Z M 11.709 1.25 C 7.09961 1.25 3.41797 -2.44141 3.41797 -7.05078 C 3.41797 -11.6504 7.08984 -15.3516 11.6992 -15.3516 C 16.3086 -15.3516 20 -11.6504 20.0098 -7.05078 C 20.0195 -2.44141 16.3184 1.25 11.709 1.25 Z M 11.6895 -2.41211 C 12.207 -2.41211 12.5195 -2.77344 12.5195 -3.33984 L 12.5195 -6.23047 L 15.5762 -6.23047 C 16.123 -6.23047 16.5039 -6.51367 16.5039 -7.03125 C 16.5039 -7.55859 16.1426 -7.86133 15.5762 -7.86133 L 12.5195 -7.86133 L 12.5195 -10.9277 C 12.5195 -11.5039 12.207 -11.8555 11.6895 -11.8555 C 11.1719 -11.8555 10.8789 -11.4844 10.8789 -10.9277 L 10.8789 -7.86133 L 7.83203 -7.86133 C 7.26562 -7.86133 6.89453 -7.55859 6.89453 -7.03125 C 6.89453 -6.51367 7.28516 -6.23047 7.83203 -6.23047 L 10.8789 -6.23047 L 10.8789 -3.33984 C 10.8789 -2.79297 11.1719 -2.41211 11.6895 -2.41211 Z"/>
  </g>
  <g id="" transform="matrix(1 0 0 1 304.924 1933)">
   <path d="M 14.9707 5.67383 C 21.9336 5.67383 27.6953 -0.078125 27.6953 -7.04102 C 27.6953 -14.0039 21.9238 -19.7559 14.9609 -19.7559 C 8.00781 -19.7559 2.25586 -14.0039 2.25586 -7.04102 C 2.25586 -0.078125 8.01758 5.67383 14.9707 5.67383 Z M 14.9707 3.85742 C 8.93555 3.85742 4.08203 -1.00586 4.08203 -7.04102 C 4.08203 -13.0762 8.92578 -17.9395 14.9609 -17.9395 C 21.0059 -17.9395 25.8594 -13.0762 25.8691 -7.04102 C 25.8789 -1.00586 21.0156 3.85742 14.9707 3.85742 Z M 14.9512 -1.06445 C 15.5176 -1.06445 15.8691 -1.45508 15.8691 -2.06055 L 15.8691 -6.13281 L 20.1074 -6.13281 C 20.6934 -6.13281 21.1133 -6.46484 21.1133 -7.02148 C 21.1133 -7.59766 20.7227 -7.93945 20.1074 -7.93945 L 15.8691 -7.93945 L 15.8691 -12.1875 C 15.8691 -12.8027 15.5176 -13.1934 14.9512 -13.1934 C 14.3848 -13.1934 14.0625 -12.7832 14.0625 -12.1875 L 14.0625 -7.93945 L 9.83398 -7.93945 C 9.21875 -7.93945 8.80859 -7.59766 8.80859 -7.02148 C 8.80859 -6.46484 9.23828 -6.13281 9.83398 -6.13281 L 14.0625 -6.13281 L 14.0625 -2.06055 C 14.0625 -1.47461 14.3848 -1.06445 14.9512 -1.06445 Z"/>
  </g>
  <text style="stroke:none;fill:black;font-family:-apple-system,&quot;SF Pro Display&quot;,&quot;SF Pro Text&quot;,Helvetica,sans-serif;font-weight:bold;" transform="matrix(1 0 0 1 263 1953)">Design Variations</text>
  <text style="stroke:none;fill:black;font-family:-apple-system,&quot;SF Pro Display&quot;,&quot;SF Pro Text&quot;,Helvetica,sans-serif;" transform="matrix(1 0 0 1 263 1971)">Symbols are supported in up to nine weights and three scales.</text>
  <text style="stroke:none;fill:black;font-family:-apple-system,&quot;SF Pro Display&quot;,&quot;SF Pro Text&quot;,Helvetica,sans-serif;" transform="matrix(1 0 0 1 263 1989)">For optimal layout with text and other symbols, vertically align</text>
  <text style="stroke:none;fill:black;font-family:-apple-system,&quot;SF Pro Display&quot;,&quot;SF Pro Text&quot;,Helvetica,sans-serif;" transform="matrix(1 0 0 1 263 2007)">symbols with the adjacent text.</text>
  <rect height="14" id="" style="fill:#00AEEF;stroke:none;opacity:0.4;" width="3" x="776" y="1919"/>
  <g id="" transform="matrix(1 0 0 1 779 1933)">
   <path d="M 10.5273 0 L 12.373 0 L 7.17773 -14.0918 L 5.43945 -14.0918 L 0.244141 0 L 2.08984 0 L 3.50586 -4.0332 L 9.11133 -4.0332 Z M 6.2793 -11.9531 L 6.33789 -11.9531 L 8.59375 -5.52734 L 4.02344 -5.52734 Z"/>
  </g>
  <rect height="14" id="" style="fill:#00AEEF;stroke:none;opacity:0.4;" width="3" x="791.617" y="1919"/>
  <text style="stroke:none;fill:black;font-family:-apple-system,&quot;SF Pro Display&quot;,&quot;SF Pro Text&quot;,Helvetica,sans-serif;font-weight:bold;" transform="matrix(1 0 0 1 776 1953)">Margins</text>
  <text style="stroke:none;fill:black;font-family:-apple-system,&quot;SF Pro Display&quot;,&quot;SF Pro Text&quot;,Helvetica,sans-serif;" transform="matrix(1 0 0 1 776 1971)">Leading and trailing margins on the left and right side of each symbol</text>
  <text style="stroke:none;fill:black;font-family:-apple-system,&quot;SF Pro Display&quot;,&quot;SF Pro Text&quot;,Helvetica,sans-serif;" transform="matrix(1 0 0 1 776 1989)">can be adjusted by modifying the width of the blue rectangles.</text>
  <text style="stroke:none;fill:black;font-family:-apple-system,&quot;SF Pro Display&quot;,&quot;SF Pro Text&quot;,Helvetica,sans-serif;" transform="matrix(1 0 0 1 776 2007)">Modifications are automatically applied proportionally to all</text>
  <text style="stroke:none;fill:black;font-family:-apple-system,&quot;SF Pro Display&quot;,&quot;SF Pro Text&quot;,Helvetica,sans-serif;" transform="matrix(1 0 0 1 776 2025)">scales and weights.</text>
  <g id="" transform="matrix(1 0 0 1 1289 1933)">
   <path d="M 2.83203 3.11523 L 4.375 4.6582 C 5.22461 5.48828 6.19141 5.41992 7.06055 4.46289 L 17.2754 -6.66016 C 17.7051 -6.36719 18.0957 -6.37695 18.5645 -6.47461 L 19.6094 -6.68945 L 20.3027 -5.99609 L 20.2539 -5.47852 C 20.1855 -4.95117 20.3516 -4.53125 20.8496 -4.0332 L 21.6602 -3.22266 C 22.168 -2.71484 22.8223 -2.68555 23.3008 -3.16406 L 26.5527 -6.41602 C 27.0312 -6.89453 27.0117 -7.54883 26.5039 -8.05664 L 25.6836 -8.87695 C 25.1855 -9.375 24.7754 -9.55078 24.2383 -9.47266 L 23.7109 -9.41406 L 23.0566 -10.0781 L 23.3398 -11.2207 C 23.4863 -11.7871 23.3398 -12.2559 22.7148 -12.8613 L 20.3027 -15.2539 C 16.7578 -18.7793 12.2266 -18.6719 9.11133 -15.5371 C 8.69141 -15.1074 8.64258 -14.5215 8.91602 -14.0918 C 9.15039 -13.7207 9.62891 -13.4961 10.2734 -13.6621 C 11.7871 -14.043 13.3008 -13.9258 14.7852 -12.9199 L 14.1602 -11.3379 C 13.9258 -10.752 13.9453 -10.2734 14.1797 -9.83398 L 3.01758 0.439453 C 2.08008 1.30859 1.97266 2.25586 2.83203 3.11523 Z M 10.6738 -15.1465 C 13.3398 -17.1387 16.6504 -16.8262 19.0527 -14.4141 L 21.6797 -11.8066 C 21.9141 -11.5723 21.9434 -11.3867 21.8848 -11.0938 L 21.5039 -9.53125 L 23.0762 -7.95898 L 24.043 -8.04688 C 24.3262 -8.07617 24.4141 -8.05664 24.6387 -7.83203 L 25.2637 -7.20703 L 22.5098 -4.46289 L 21.8848 -5.07812 C 21.6602 -5.30273 21.6406 -5.40039 21.6699 -5.68359 L 21.7578 -6.64062 L 20.1953 -8.20312 L 18.5742 -7.89062 C 18.291 -7.83203 18.1445 -7.83203 17.9102 -8.07617 L 15.7324 -10.2539 C 15.5078 -10.4883 15.4785 -10.625 15.6055 -10.9473 L 16.5527 -13.2227 C 14.9512 -14.7559 12.8418 -15.6055 10.8008 -14.9512 C 10.7129 -14.9219 10.6445 -14.9414 10.6152 -14.9805 C 10.5859 -15.0293 10.5859 -15.0781 10.6738 -15.1465 Z M 4.10156 2.41211 C 3.61328 1.91406 3.78906 1.61133 4.12109 1.30859 L 15.0781 -8.80859 L 16.3086 -7.57812 L 6.15234 3.34961 C 5.84961 3.68164 5.46875 3.7793 5.06836 3.37891 Z"/>
  </g>
  <text style="stroke:none;fill:black;font-family:-apple-system,&quot;SF Pro Display&quot;,&quot;SF Pro Text&quot;,Helvetica,sans-serif;font-weight:bold;" transform="matrix(1 0 0 1 1289 1953)">Exporting</text>
  <text style="stroke:none;fill:black;font-family:-apple-system,&quot;SF Pro Display&quot;,&quot;SF Pro Text&quot;,Helvetica,sans-serif;" transform="matrix(1 0 0 1 1289 1971)">Symbols should be outlined when exporting to ensure the</text>
  <text style="stroke:none;fill:black;font-family:-apple-system,&quot;SF Pro Display&quot;,&quot;SF Pro Text&quot;,Helvetica,sans-serif;" transform="matrix(1 0 0 1 1289 1989)">design is preserved when submitting to Xcode.</text>
  <text id="template-version" style="stroke:none;fill:black;font-family:-apple-system,&quot;SF Pro Display&quot;,&quot;SF Pro Text&quot;,Helvetica,sans-serif;text-anchor:end;" transform="matrix(1 0 0 1 3036 1933)">Template v.1.0</text>
  <text style="stroke:none;fill:black;font-family:-apple-system,&quot;SF Pro Display&quot;,&quot;SF Pro Text&quot;,Helvetica,sans-serif;text-anchor:end;" transform="matrix(1 0 0 1 3036 1951)">Generated from x.circle.fill</text>
  <text style="stroke:none;fill:black;font-family:-apple-system,&quot;SF Pro Display&quot;,&quot;SF Pro Text&quot;,Helvetica,sans-serif;text-anchor:end;" transform="matrix(1 0 0 1 3036 1969)">Typeset at 100 points</text>
  <text style="stroke:none;fill:black;font-family:-apple-system,&quot;SF Pro Display&quot;,&quot;SF Pro Text&quot;,Helvetica,sans-serif;" transform="matrix(1 0 0 1 263 726)">Small</text>
  <text style="stroke:none;fill:black;font-family:-apple-system,&quot;SF Pro Display&quot;,&quot;SF Pro Text&quot;,Helvetica,sans-serif;" transform="matrix(1 0 0 1 263 1156)">Medium</text>
  <text style="stroke:none;fill:black;font-family:-apple-system,&quot;SF Pro Display&quot;,&quot;SF Pro Text&quot;,Helvetica,sans-serif;" transform="matrix(1 0 0 1 263 1586)">Large</text>
 </g>
 <g id="Guides">
  <g id="H-reference" style="fill:#27AAE1;stroke:none;" transform="matrix(1 0 0 1 339 696)">
   <path d="M 54.9316 0 L 57.666 0 L 30.5664 -70.459 L 28.0762 -70.459 L 0.976562 0 L 3.66211 0 L 12.9395 -24.4629 L 45.7031 -24.4629 Z M 29.1992 -67.0898 L 29.4434 -67.0898 L 44.8242 -26.709 L 13.8184 -26.709 Z"/>
  </g>
  <line id="Baseline-S" style="fill:none;stroke:#27AAE1;opacity:1;stroke-width:0.577;" x1="263" x2="3036" y1="696" y2="696"/>
  <line id="Capline-S" style="fill:none;stroke:#27AAE1;opacity:1;stroke-width:0.577;" x1="263" x2="3036" y1="625.541" y2="625.541"/>
  <g id="H-reference" style="fill:#27AAE1;stroke:none;" transform="matrix(1 0 0 1 339 1126)">
   <path d="M 54.9316 0 L 57.666 0 L 30.5664 -70.459 L 28.0762 -70.459 L 0.976562 0 L 3.66211 0 L 12.9395 -24.4629 L 45.7031 -24.4629 Z M 29.1992 -67.0898 L 29.4434 -67.0898 L 44.8242 -26.709 L 13.8184 -26.709 Z"/>
  </g>
  <line id="Baseline-M" style="fill:none;stroke:#27AAE1;opacity:1;stroke-width:0.577;" x1="263" x2="3036" y1="1126" y2="1126"/>
  <line id="Capline-M" style="fill:none;stroke:#27AAE1;opacity:1;stroke-width:0.577;" x1="263" x2="3036" y1="1055.54" y2="1055.54"/>
  <g id="H-reference" style="fill:#27AAE1;stroke:none;" transform="matrix(1 0 0 1 339 1556)">
   <path d="M 54.9316 0 L 57.666 0 L 30.5664 -70.459 L 28.0762 -70.459 L 0.976562 0 L 3.66211 0 L 12.9395 -24.4629 L 45.7031 -24.4629 Z M 29.1992 -67.0898 L 29.4434 -67.0898 L 44.8242 -26.709 L 13.8184 -26.709 Z"/>
  </g>
  <line id="Baseline-L" style="fill:none;stroke:#27AAE1;opacity:1;stroke-width:0.577;" x1="263" x2="3036" y1="1556" y2="1556"/>
  <line id="Capline-L" style="fill:none;stroke:#27AAE1;opacity:1;stroke-width:0.577;" x1="263" x2="3036" y1="1485.54" y2="1485.54"/>
  <rect height="119.336" id="left-margin" style="fill:#00AEEF;stroke:none;opacity:0.4;" width="8.74023" x="1391.3" y="1030.79"/>
  <rect height="119.336" id="right-margin" style="fill:#00AEEF;stroke:none;opacity:0.4;" width="8.74023" x="1499.65" y="1030.79"/>
 </g>
 <g id="Symbols">
  <g id="Black-L" transform="matrix(1 0 0 1 2854.05 1556)">
   <path d="M 79.3457 32.8613 C 116.748 32.8613 147.412 2.19727 147.412 -35.2051 C 147.412 -72.6074 116.748 -103.271 79.2969 -103.271 C 41.8945 -103.271 11.2793 -72.6074 11.2793 -35.2051 C 11.2793 2.19727 41.9434 32.8613 79.3457 32.8613 Z M 61.4746 -4.93164 C 56.3477 -4.93164 52.832 -8.30078 52.832 -13.1348 C 52.832 -15.4785 53.6133 -17.4316 55.5176 -19.873 L 67.334 -35.4004 L 55.8105 -50.6348 C 53.9062 -53.125 53.0762 -55.127 53.0762 -57.4707 C 53.0762 -62.3535 56.6406 -65.7715 61.8164 -65.7715 C 65.7715 -65.7715 67.8711 -64.3555 70.8008 -59.7656 L 79.3945 -46.5332 L 79.9316 -46.5332 L 88.0859 -59.7168 C 90.7715 -64.2578 93.0176 -65.7715 97.0215 -65.7715 C 102.197 -65.7715 105.713 -62.4512 105.713 -57.5684 C 105.713 -55.2734 104.883 -53.2715 103.027 -50.8301 L 91.2598 -35.3027 L 102.979 -19.9707 C 104.834 -17.5293 105.664 -15.5273 105.664 -13.2324 C 105.664 -8.30078 102.148 -4.93164 96.9238 -4.93164 C 92.9199 -4.93164 90.7227 -6.49414 87.9395 -11.0352 L 79.6387 -24.2188 L 79.1016 -24.2188 L 70.459 -11.0352 C 67.4805 -6.34766 65.3809 -4.93164 61.4746 -4.93164 Z"/>
  </g>
  <g id="Heavy-L" transform="matrix(1 0 0 1 2558.39 1556)">
   <path d="M 78.2715 31.7871 C 115.088 31.7871 145.312 1.61133 145.312 -35.2051 C 145.312 -72.0215 115.039 -102.197 78.2715 -102.197 C 41.4551 -102.197 11.2793 -72.0215 11.2793 -35.2051 C 11.2793 1.61133 41.5039 31.7871 78.2715 31.7871 Z M 60.0586 -4.98047 C 55.5664 -4.98047 52.4414 -7.95898 52.4414 -12.1582 C 52.4414 -14.209 53.125 -15.918 54.7363 -18.0176 L 67.7734 -35.5469 L 55.127 -52.5879 C 53.4668 -54.7852 52.7832 -56.4941 52.7832 -58.5938 C 52.7832 -62.8418 55.957 -65.918 60.498 -65.918 C 63.9648 -65.918 65.8203 -64.6973 68.3594 -60.7422 L 78.3691 -45.5566 L 78.9062 -45.5566 L 88.5254 -60.6934 C 90.8691 -64.5996 92.8711 -65.918 96.3379 -65.918 C 100.879 -65.918 104.004 -62.9395 104.004 -58.6914 C 104.004 -56.6895 103.271 -54.9316 101.66 -52.832 L 88.6719 -35.4004 L 101.611 -18.1152 C 103.223 -16.0156 103.906 -14.3066 103.906 -12.2559 C 103.906 -7.95898 100.781 -4.98047 96.1914 -4.98047 C 92.6758 -4.98047 90.7715 -6.29883 88.3301 -10.2539 L 78.4668 -25.3906 L 78.0273 -25.3906 L 67.9199 -10.2539 C 65.2832 -6.20117 63.4766 -4.98047 60.0586 -4.98047 Z"/>
  </g>
  <g id="Bold-L" transform="matrix(1 0 0 1 2262.88 1556)">
   <path d="M 77.0996 30.6152 C 113.232 30.6152 142.92 0.878906 142.92 -35.2051 C 142.92 -71.3379 113.184 -101.025 77.0508 -101.025 C 40.9668 -101.025 11.2793 -71.3379 11.2793 -35.2051 C 11.2793 0.878906 41.0156 30.6152 77.0996 30.6152 Z M 58.4473 -4.98047 C 54.6387 -4.98047 52.0508 -7.56836 52.0508 -11.084 C 52.0508 -12.8418 52.5879 -14.209 53.8574 -15.918 L 68.3105 -35.6934 L 54.3945 -54.7363 C 53.0273 -56.5918 52.4414 -58.0078 52.4414 -59.8145 C 52.4414 -63.4277 55.2246 -66.0645 59.0332 -66.0645 C 61.9629 -66.0645 63.5254 -65.0391 65.625 -61.8164 L 77.2949 -44.4336 L 77.7344 -44.4336 L 89.0137 -61.7676 C 91.0156 -64.9414 92.6758 -66.0645 95.6055 -66.0645 C 99.4141 -66.0645 102.051 -63.5254 102.051 -59.9609 C 102.051 -58.3008 101.465 -56.7871 100.146 -55.0781 L 85.791 -35.5469 L 100.098 -16.0645 C 101.367 -14.3555 101.953 -12.9395 101.953 -11.2305 C 101.953 -7.56836 99.2676 -4.98047 95.3613 -4.98047 C 92.4316 -4.98047 90.8691 -6.10352 88.7695 -9.375 L 77.1973 -26.709 L 76.8066 -26.709 L 65.0391 -9.375 C 62.8418 -6.05469 61.3281 -4.98047 58.4473 -4.98047 Z"/>
  </g>
  <g id="Semibold-L" transform="matrix(1 0 0 1 1966.97 1556)">
   <path d="M 76.2695 29.7852 C 111.914 29.7852 141.309 0.439453 141.309 -35.2051 C 141.309 -70.8496 111.865 -100.244 76.2695 -100.244 C 40.625 -100.244 11.2793 -70.8496 11.2793 -35.2051 C 11.2793 0.439453 40.6738 29.7852 76.2695 29.7852 Z M 57.3242 -5.0293 C 54.0527 -5.0293 51.709 -7.27539 51.709 -10.3027 C 51.709 -11.8652 52.1973 -12.9883 53.2715 -14.4531 L 68.6523 -35.791 L 53.9062 -56.25 C 52.7344 -57.8613 52.1973 -59.0332 52.1973 -60.6445 C 52.1973 -63.7695 54.6875 -66.1621 58.0078 -66.1621 C 60.5957 -66.1621 61.9629 -65.2344 63.7695 -62.5977 L 76.5137 -43.6523 L 76.9531 -43.6523 L 89.3555 -62.5 C 91.0645 -65.2344 92.5781 -66.1621 95.0684 -66.1621 C 98.3887 -66.1621 100.732 -63.916 100.732 -60.8398 C 100.732 -59.375 100.244 -58.1055 99.1211 -56.6406 L 83.7891 -35.5957 L 99.0234 -14.6484 C 100.098 -13.2324 100.586 -12.0117 100.586 -10.498 C 100.586 -7.27539 98.2422 -5.0293 94.7754 -5.0293 C 92.2852 -5.0293 90.918 -5.95703 89.0625 -8.78906 L 76.3184 -27.5879 L 75.9766 -27.5879 L 63.0859 -8.78906 C 61.1816 -5.95703 59.8145 -5.0293 57.3242 -5.0293 Z"/>
  </g>
  <g id="Medium-L" transform="matrix(1 0 0 1 1670.87 1556)">
   <path d="M 75.6836 29.1992 C 110.938 29.1992 140.088 0.0488281 140.088 -35.2051 C 140.088 -70.459 110.889 -99.6094 75.6348 -99.6094 C 40.3809 -99.6094 11.2793 -70.459 11.2793 -35.2051 C 11.2793 0.0488281 40.3809 29.1992 75.6836 29.1992 Z M 56.4941 -5.0293 C 53.6133 -5.0293 51.5137 -7.08008 51.5137 -9.76562 C 51.5137 -11.1328 51.9043 -12.1094 52.7832 -13.3789 L 68.9453 -35.8887 L 53.5156 -57.373 C 52.4902 -58.8379 52.0508 -59.8633 52.0508 -61.3281 C 52.0508 -64.0625 54.2969 -66.2598 57.2266 -66.2598 C 59.5703 -66.2598 60.791 -65.4297 62.3535 -63.1348 L 75.9277 -43.0664 L 76.3672 -43.0664 L 89.6484 -63.0371 C 91.1621 -65.4297 92.4805 -66.2598 94.6777 -66.2598 C 97.6074 -66.2598 99.707 -64.209 99.707 -61.4746 C 99.707 -60.2051 99.3164 -59.082 98.3398 -57.8613 L 82.3242 -35.6445 L 98.2422 -13.5742 C 99.1699 -12.3535 99.5605 -11.3281 99.5605 -9.91211 C 99.5605 -7.08008 97.4121 -5.0293 94.3359 -5.0293 C 92.1387 -5.0293 90.918 -5.85938 89.3066 -8.30078 L 75.6348 -28.2715 L 75.3418 -28.2715 L 61.5723 -8.30078 C 59.9121 -5.85938 58.6914 -5.0293 56.4941 -5.0293 Z"/>
  </g>
  <g id="Regular-L" transform="matrix(1 0 0 1 1374.97 1556)">
   <path d="M 74.8535 28.3691 C 109.668 28.3691 138.477 -0.390625 138.477 -35.2051 C 138.477 -70.0195 109.619 -98.7793 74.8047 -98.7793 C 40.0391 -98.7793 11.2793 -70.0195 11.2793 -35.2051 C 11.2793 -0.390625 40.0879 28.3691 74.8535 28.3691 Z M 55.3711 -5.0293 C 52.9785 -5.0293 51.2207 -6.83594 51.2207 -8.98438 C 51.2207 -10.1562 51.5137 -10.9375 52.1973 -11.9141 L 69.2871 -35.9863 L 52.9785 -58.8867 C 52.1484 -60.0586 51.8066 -60.8887 51.8066 -62.1582 C 51.8066 -64.4531 53.7598 -66.3574 56.2012 -66.3574 C 58.2031 -66.3574 59.2285 -65.6738 60.498 -63.8672 L 75.1953 -42.2852 L 75.5371 -42.2852 L 89.9902 -63.7695 C 91.2109 -65.6738 92.334 -66.3574 94.1406 -66.3574 C 96.582 -66.3574 98.3887 -64.5996 98.3887 -62.3535 C 98.3887 -61.2793 98.0469 -60.3516 97.3145 -59.375 L 80.3223 -35.7422 L 97.168 -12.207 C 97.9004 -11.1816 98.1934 -10.4004 98.1934 -9.22852 C 98.1934 -6.83594 96.3867 -5.0293 93.7988 -5.0293 C 91.9922 -5.0293 90.9668 -5.76172 89.5996 -7.71484 L 74.8047 -29.1504 L 74.5117 -29.1504 L 59.668 -7.71484 C 58.252 -5.76172 57.2266 -5.0293 55.3711 -5.0293 Z"/>
  </g>
  <g id="Light-L" transform="matrix(1 0 0 1 1079.18 1556)">
   <path d="M 73.9258 27.4902 C 108.301 27.4902 136.621 -0.830078 136.621 -35.1562 C 136.621 -69.5312 108.252 -97.8516 73.9258 -97.8516 C 39.5508 -97.8516 11.2793 -69.5312 11.2793 -35.1562 C 11.2793 -0.830078 39.5996 27.4902 73.9258 27.4902 Z M 54.7852 -5.27344 C 52.8809 -5.27344 51.5137 -6.64062 51.5137 -8.30078 C 51.5137 -9.22852 51.8066 -9.86328 52.2949 -10.5957 L 69.7266 -35.6934 L 52.8809 -60.0098 C 52.2461 -60.8887 52.002 -61.5234 52.002 -62.5 C 52.002 -64.3066 53.4668 -65.7715 55.3711 -65.7715 C 56.9336 -65.7715 57.7148 -65.1855 58.6426 -63.8184 L 74.1211 -40.7715 L 74.4629 -40.7715 L 89.7949 -63.7695 C 90.7227 -65.1855 91.6016 -65.7715 93.0176 -65.7715 C 94.9219 -65.7715 96.3379 -64.4043 96.3379 -62.6953 C 96.3379 -61.8652 95.9961 -61.084 95.5078 -60.4004 L 78.125 -35.5469 L 95.3125 -10.791 C 95.8496 -10.0586 96.0938 -9.42383 96.0938 -8.49609 C 96.0938 -6.64062 94.7266 -5.27344 92.7246 -5.27344 C 91.2598 -5.27344 90.4785 -5.85938 89.4531 -7.32422 L 73.9746 -30.2734 L 73.6816 -30.2734 L 58.0566 -7.32422 C 57.0312 -5.85938 56.2012 -5.27344 54.7852 -5.27344 Z"/>
  </g>
  <g id="Thin-L" transform="matrix(1 0 0 1 783.693 1556)">
   <path d="M 72.7051 26.3184 C 106.494 26.3184 134.18 -1.36719 134.18 -35.1074 C 134.18 -68.8965 106.494 -96.582 72.7051 -96.582 C 38.9648 -96.582 11.2793 -68.8965 11.2793 -35.1074 C 11.2793 -1.36719 38.9648 26.3184 72.7051 26.3184 Z M 53.9551 -5.51758 C 52.7344 -5.51758 51.9531 -6.39648 51.9531 -7.37305 C 51.9531 -7.95898 52.1973 -8.44727 52.4414 -8.78906 L 70.3125 -35.3027 L 52.7344 -61.4746 C 52.3926 -62.0117 52.2461 -62.4023 52.2461 -62.9883 C 52.2461 -64.1113 53.0273 -64.9902 54.1992 -64.9902 C 55.2246 -64.9902 55.7129 -64.5508 56.25 -63.7695 L 72.7051 -38.7695 L 72.998 -38.7695 L 89.5996 -63.7207 C 90.0879 -64.5508 90.6738 -64.9902 91.5527 -64.9902 C 92.7734 -64.9902 93.5547 -64.1113 93.5547 -63.1348 C 93.5547 -62.5977 93.3105 -62.0605 93.0664 -61.7188 L 75.1953 -35.2539 L 92.8223 -8.98438 C 93.1641 -8.49609 93.3105 -8.10547 93.3105 -7.51953 C 93.3105 -6.39648 92.5293 -5.51758 91.3574 -5.51758 C 90.332 -5.51758 89.8438 -5.95703 89.3066 -6.78711 L 72.8516 -31.7383 L 72.5586 -31.7383 L 55.9082 -6.78711 C 55.3711 -5.95703 54.834 -5.51758 53.9551 -5.51758 Z"/>
  </g>
  <g id="Ultralight-L" transform="matrix(1 0 0 1 487.616 1556)">
   <path d="M 72.1191 25.7324 C 105.566 25.7324 132.91 -1.61133 132.91 -35.1074 C 132.91 -68.5547 105.566 -95.8984 72.1191 -95.8984 C 38.623 -95.8984 11.2793 -68.5547 11.2793 -35.1074 C 11.2793 -1.61133 38.623 25.7324 72.1191 25.7324 Z M 53.5645 -5.66406 C 52.6367 -5.66406 52.1484 -6.25 52.1484 -6.88477 C 52.1484 -7.27539 52.3926 -7.71484 52.4902 -7.91016 L 70.6055 -35.1074 L 52.6367 -62.2559 C 52.4902 -62.5488 52.3438 -62.8418 52.3438 -63.2324 C 52.3438 -64.0137 52.832 -64.5996 53.6133 -64.5996 C 54.3457 -64.5996 54.6875 -64.209 54.9805 -63.7207 L 71.9727 -37.7441 L 72.2656 -37.7441 L 89.4531 -63.7207 C 89.7949 -64.209 90.1855 -64.5996 90.7715 -64.5996 C 91.6504 -64.5996 92.1387 -64.0137 92.1387 -63.3789 C 92.1387 -62.9395 91.8945 -62.5488 91.8457 -62.3535 L 73.6816 -35.1074 L 91.5527 -8.05664 C 91.748 -7.71484 91.8945 -7.42188 91.8945 -7.03125 C 91.8945 -6.25 91.4062 -5.66406 90.625 -5.66406 C 89.8438 -5.66406 89.5508 -6.00586 89.2578 -6.49414 L 72.2656 -32.5195 L 71.9727 -32.5195 L 54.834 -6.49414 C 54.541 -6.00586 54.1504 -5.66406 53.5645 -5.66406 Z"/>
  </g>
  <g id="Black-M" transform="matrix(1 0 0 1 2870.97 1126)">
   <path d="M 62.4023 18.457 C 91.9922 18.457 116.113 -5.61523 116.113 -35.2051 C 116.113 -64.7949 91.9922 -88.8672 62.4023 -88.8672 C 32.8125 -88.8672 8.74023 -64.7949 8.74023 -35.2051 C 8.74023 -5.61523 32.8125 18.457 62.4023 18.457 Z M 49.2676 -11.8164 C 44.6777 -11.8164 41.6504 -14.7461 41.6504 -19.0918 C 41.6504 -21.0938 42.3828 -22.9004 44.0918 -25.1465 L 51.7578 -35.0586 L 44.0918 -45.1172 C 42.3828 -47.3145 41.6504 -49.1699 41.6504 -51.1719 C 41.6504 -55.5176 44.6289 -58.3984 49.2188 -58.3984 C 52.6855 -58.3984 54.541 -57.1289 57.1777 -52.9297 L 62.2559 -44.5312 L 62.793 -44.5312 L 67.5781 -52.9297 C 69.9707 -57.0312 71.9238 -58.3984 75.5371 -58.3984 C 80.127 -58.3984 83.1055 -55.5176 83.1055 -51.1719 C 83.1055 -49.1699 82.373 -47.3145 80.6641 -45.1172 L 72.998 -35.0586 L 80.6641 -25.0977 C 82.373 -22.9004 83.1543 -21.0938 83.1543 -19.043 C 83.1543 -14.7461 80.127 -11.8164 75.5371 -11.8164 C 71.9238 -11.8164 69.9707 -13.2324 67.5781 -17.334 L 62.793 -25.6836 L 62.3047 -25.6836 L 57.1777 -17.334 C 54.541 -13.0859 52.7344 -11.8164 49.2676 -11.8164 Z"/>
  </g>
  <g id="Heavy-M" transform="matrix(1 0 0 1 2575.19 1126)">
   <path d="M 61.5234 17.5781 C 90.5273 17.5781 114.258 -6.15234 114.258 -35.2051 C 114.258 -64.2578 90.5273 -87.9883 61.4746 -87.9883 C 32.4707 -87.9883 8.74023 -64.2578 8.74023 -35.2051 C 8.74023 -6.15234 32.4707 17.5781 61.5234 17.5781 Z M 47.8516 -11.8164 C 43.8477 -11.8164 41.1621 -14.4043 41.1621 -18.1641 C 41.1621 -19.9707 41.7969 -21.5332 43.2129 -23.4375 L 52.1484 -35.2539 L 43.4082 -46.9727 C 41.8945 -48.9258 41.2598 -50.4883 41.2598 -52.2949 C 41.2598 -56.1035 43.9941 -58.6914 47.998 -58.6914 C 51.0742 -58.6914 52.6855 -57.6172 54.9805 -54.0039 L 61.4746 -43.8477 L 61.9141 -43.8477 L 68.1152 -53.9551 C 70.2148 -57.5195 71.9238 -58.6914 75.0488 -58.6914 C 79.1016 -58.6914 81.7871 -56.1035 81.7871 -52.3438 C 81.7871 -50.5371 81.1523 -48.9746 79.6875 -47.0703 L 70.752 -35.2051 L 79.6387 -23.4863 C 81.1035 -21.582 81.7383 -20.0195 81.7383 -18.2129 C 81.7383 -14.4043 79.0527 -11.8164 75 -11.8164 C 71.875 -11.8164 70.166 -12.9883 68.0176 -16.5527 L 61.7676 -26.709 L 61.3281 -26.709 L 54.834 -16.5527 C 52.4902 -12.8906 50.8789 -11.8164 47.8516 -11.8164 Z"/>
  </g>
  <g id="Bold-M" transform="matrix(1 0 0 1 2279.5 1126)">
   <path d="M 60.498 16.5039 C 88.8672 16.5039 112.207 -6.78711 112.207 -35.2051 C 112.207 -63.623 88.8672 -86.9629 60.4492 -86.9629 C 32.0312 -86.9629 8.74023 -63.623 8.74023 -35.2051 C 8.74023 -6.78711 32.0801 16.5039 60.498 16.5039 Z M 46.2402 -11.7676 C 42.8711 -11.7676 40.5762 -14.0137 40.5762 -17.1875 C 40.5762 -18.7012 41.0645 -19.9707 42.2363 -21.5332 L 52.5879 -35.498 L 42.627 -49.0234 C 41.3574 -50.6836 40.8203 -51.9531 40.8203 -53.5156 C 40.8203 -56.7383 43.2617 -59.0332 46.6309 -59.0332 C 49.2676 -59.0332 50.6348 -58.1055 52.5391 -55.1758 L 60.5957 -43.0664 L 60.9863 -43.0664 L 68.7012 -55.127 C 70.459 -58.0566 71.9238 -59.0332 74.5605 -59.0332 C 77.9297 -59.0332 80.2734 -56.7871 80.2734 -53.6133 C 80.2734 -52.1484 79.7852 -50.8301 78.5645 -49.2676 L 68.2617 -35.4004 L 78.5156 -21.6309 C 79.6875 -20.0684 80.2246 -18.7988 80.2246 -17.2852 C 80.2246 -14.0137 77.8809 -11.7676 74.4141 -11.7676 C 71.7773 -11.7676 70.3613 -12.793 68.5547 -15.7227 L 60.5957 -27.7832 L 60.2539 -27.7832 L 52.1484 -15.7227 C 50.1953 -12.6953 48.8281 -11.7676 46.2402 -11.7676 Z"/>
  </g>
  <g id="Semibold-M" transform="matrix(1 0 0 1 1983.5 1126)">
   <path d="M 59.7656 15.8203 C 87.7441 15.8203 110.791 -7.22656 110.791 -35.2051 C 110.791 -63.1836 87.6953 -86.2793 59.7656 -86.2793 C 31.7871 -86.2793 8.74023 -63.1836 8.74023 -35.2051 C 8.74023 -7.22656 31.7871 15.8203 59.7656 15.8203 Z M 45.166 -11.7676 C 42.2363 -11.7676 40.1855 -13.7695 40.1855 -16.5039 C 40.1855 -17.8711 40.5762 -18.8965 41.6016 -20.2148 L 52.9297 -35.6934 L 42.0898 -50.4395 C 41.0156 -51.9043 40.5273 -52.9785 40.5273 -54.3945 C 40.5273 -57.1777 42.7246 -59.2773 45.7031 -59.2773 C 47.998 -59.2773 49.2188 -58.4961 50.8789 -56.0059 L 59.9609 -42.5293 L 60.3027 -42.5293 L 69.0918 -55.957 C 70.6543 -58.4473 71.9727 -59.2773 74.2188 -59.2773 C 77.1484 -59.2773 79.248 -57.2754 79.248 -54.4922 C 79.248 -53.2227 78.8086 -52.0996 77.7832 -50.7324 L 66.5527 -35.498 L 77.7344 -20.3613 C 78.7598 -19.043 79.1504 -17.9688 79.1504 -16.6016 C 79.1504 -13.7695 77.0508 -11.7676 73.9746 -11.7676 C 71.7773 -11.7676 70.5078 -12.5977 68.8965 -15.1367 L 59.8145 -28.5645 L 59.5215 -28.5645 L 50.3418 -15.1367 C 48.6328 -12.5488 47.4121 -11.7676 45.166 -11.7676 Z"/>
  </g>
  <g id="Medium-M" transform="matrix(1 0 0 1 1687.3 1126)">
   <path d="M 59.2285 15.2832 C 86.9141 15.2832 109.766 -7.56836 109.766 -35.2051 C 109.766 -62.8906 86.8652 -85.7422 59.1797 -85.7422 C 31.543 -85.7422 8.74023 -62.8906 8.74023 -35.2051 C 8.74023 -7.56836 31.5918 15.2832 59.2285 15.2832 Z M 44.3359 -11.7676 C 41.748 -11.7676 39.8926 -13.5742 39.8926 -15.9668 C 39.8926 -17.1875 40.2344 -18.0664 41.0645 -19.2383 L 53.125 -35.791 L 41.6504 -51.5137 C 40.7227 -52.7832 40.332 -53.7598 40.332 -55.0293 C 40.332 -57.5195 42.334 -59.4727 45.0195 -59.4727 C 47.0703 -59.4727 48.1445 -58.7402 49.5605 -56.6406 L 59.4727 -42.0898 L 59.8145 -42.0898 L 69.4336 -56.5918 C 70.8008 -58.7402 71.9727 -59.4727 73.9258 -59.4727 C 76.5625 -59.4727 78.4668 -57.666 78.4668 -55.1758 C 78.4668 -54.0527 78.125 -53.0273 77.1973 -51.9043 L 65.2344 -35.5957 L 77.1484 -19.4336 C 77.9785 -18.2617 78.3691 -17.334 78.3691 -16.1133 C 78.3691 -13.5742 76.4648 -11.7676 73.6816 -11.7676 C 71.7285 -11.7676 70.6543 -12.5 69.1406 -14.6973 L 59.2285 -29.1504 L 58.9355 -29.1504 L 48.9258 -14.6973 C 47.4121 -12.4512 46.3379 -11.7676 44.3359 -11.7676 Z"/>
  </g>
  <g id="Regular-M" transform="matrix(1 0 0 1 1391.3 1126)">
   <path d="M 58.5449 14.5508 C 85.791 14.5508 108.35 -8.00781 108.35 -35.2539 C 108.35 -62.4512 85.7422 -85.0586 58.4961 -85.0586 C 31.2988 -85.0586 8.74023 -62.4512 8.74023 -35.2539 C 8.74023 -8.00781 31.3477 14.5508 58.5449 14.5508 Z M 43.2617 -11.7188 C 41.1133 -11.7188 39.502 -13.3301 39.502 -15.2832 C 39.502 -16.3574 39.7461 -17.041 40.4297 -17.9688 L 53.418 -35.9863 L 41.1133 -52.9297 C 40.3809 -54.0039 40.0391 -54.7363 40.0391 -55.9082 C 40.0391 -57.959 41.8457 -59.7168 44.043 -59.7168 C 45.8008 -59.7168 46.7773 -59.082 47.9004 -57.4707 L 58.8867 -41.5527 L 59.1797 -41.5527 L 69.8242 -57.373 C 70.9473 -59.082 71.9727 -59.7168 73.584 -59.7168 C 75.7812 -59.7168 77.4414 -58.1055 77.4414 -56.0547 C 77.4414 -55.127 77.1484 -54.2969 76.4648 -53.3691 L 63.5254 -35.7422 L 76.3672 -18.1641 C 77.0508 -17.2852 77.2949 -16.5527 77.2949 -15.4785 C 77.2949 -13.3301 75.6348 -11.7188 73.291 -11.7188 C 71.6797 -11.7188 70.752 -12.3535 69.4824 -14.1602 L 58.4473 -29.8828 L 58.2031 -29.8828 L 47.1191 -14.1602 C 45.8496 -12.3535 44.9219 -11.7188 43.2617 -11.7188 Z"/>
  </g>
  <g id="Light-M" transform="matrix(1 0 0 1 1095.42 1126)">
   <path d="M 57.7148 13.7695 C 84.5215 13.7695 106.689 -8.39844 106.689 -35.2051 C 106.689 -62.0117 84.5215 -84.1797 57.666 -84.1797 C 30.8594 -84.1797 8.74023 -62.0117 8.74023 -35.2051 C 8.74023 -8.39844 30.9082 13.7695 57.7148 13.7695 Z M 42.7246 -11.9141 C 41.0156 -11.9141 39.7949 -13.1348 39.7949 -14.6484 C 39.7949 -15.4785 39.9902 -16.0645 40.4785 -16.748 L 53.8574 -35.6934 L 41.0156 -53.9062 C 40.4785 -54.7363 40.1855 -55.3223 40.1855 -56.2012 C 40.1855 -57.8125 41.5527 -59.1797 43.3105 -59.1797 C 44.6777 -59.1797 45.4102 -58.6426 46.2891 -57.4219 L 57.9102 -40.1855 L 58.2031 -40.1855 L 69.6777 -57.373 C 70.5078 -58.6426 71.3379 -59.1797 72.6074 -59.1797 C 74.3164 -59.1797 75.5859 -57.9102 75.5859 -56.3477 C 75.5859 -55.6152 75.3418 -54.9316 74.8047 -54.2969 L 61.5234 -35.5469 L 74.707 -16.9434 C 75.1953 -16.2109 75.4395 -15.6738 75.4395 -14.8438 C 75.4395 -13.1348 74.1699 -11.9141 72.3633 -11.9141 C 71.0449 -11.9141 70.3613 -12.4023 69.3848 -13.7695 L 57.666 -30.9082 L 57.4707 -30.9082 L 45.7031 -13.7695 C 44.7266 -12.4023 43.9941 -11.9141 42.7246 -11.9141 Z"/>
  </g>
  <g id="Thin-M" transform="matrix(1 0 0 1 799.806 1126)">
   <path d="M 56.6406 12.7441 C 82.9102 12.7441 104.492 -8.83789 104.492 -35.1562 C 104.492 -61.4746 82.9102 -83.0566 56.5918 -83.0566 C 30.3223 -83.0566 8.74023 -61.4746 8.74023 -35.1562 C 8.74023 -8.83789 30.3223 12.7441 56.6406 12.7441 Z M 41.9922 -12.1582 C 40.918 -12.1582 40.1855 -12.9395 40.1855 -13.8184 C 40.1855 -14.3555 40.3809 -14.7949 40.5762 -15.1367 L 54.3457 -35.3516 L 40.918 -55.2734 C 40.5762 -55.7617 40.4297 -56.1035 40.4297 -56.6406 C 40.4297 -57.666 41.2109 -58.4473 42.2363 -58.4473 C 43.1641 -58.4473 43.6035 -58.1055 44.0918 -57.373 L 56.6406 -38.4277 L 56.8848 -38.4277 L 69.4824 -57.3242 C 69.9707 -58.1055 70.459 -58.4473 71.2402 -58.4473 C 72.3633 -58.4473 73.0957 -57.666 73.0957 -56.7871 C 73.0957 -56.25 72.9004 -55.8105 72.6562 -55.4688 L 58.8867 -35.3027 L 72.4609 -15.2832 C 72.7539 -14.8438 72.9492 -14.502 72.9492 -13.9648 C 72.9492 -12.9395 72.168 -12.1582 71.0938 -12.1582 C 70.2148 -12.1582 69.7754 -12.5 69.2383 -13.2812 L 56.6895 -32.2266 L 56.4453 -32.2266 L 43.7988 -13.2812 C 43.2617 -12.5 42.7734 -12.1582 41.9922 -12.1582 Z"/>
  </g>
  <g id="Ultralight-M" transform="matrix(1 0 0 1 503.656 1126)">
   <path d="M 56.0547 12.207 C 82.0801 12.207 103.369 -9.08203 103.369 -35.1562 C 103.369 -61.1816 82.0801 -82.4707 56.0547 -82.4707 C 30.0293 -82.4707 8.74023 -61.1816 8.74023 -35.1562 C 8.74023 -9.08203 30.0293 12.207 56.0547 12.207 Z M 41.6016 -12.2559 C 40.8203 -12.2559 40.332 -12.793 40.332 -13.4277 C 40.332 -13.7695 40.5273 -14.1602 40.6738 -14.3066 L 54.6387 -35.2051 L 40.8203 -55.957 C 40.6738 -56.25 40.5273 -56.4941 40.5273 -56.8359 C 40.5273 -57.5684 41.0156 -58.1055 41.748 -58.1055 C 42.3828 -58.1055 42.6758 -57.8125 42.9688 -57.3242 L 56.0059 -37.5 L 56.25 -37.5 L 69.3848 -57.3242 C 69.6777 -57.8125 70.0195 -58.1055 70.5566 -58.1055 C 71.3379 -58.1055 71.8262 -57.5684 71.8262 -56.9824 C 71.8262 -56.5918 71.6309 -56.25 71.5332 -56.0547 L 57.5684 -35.2051 L 71.3379 -14.4531 C 71.5332 -14.1602 71.6309 -13.916 71.6309 -13.5254 C 71.6309 -12.793 71.1914 -12.2559 70.459 -12.2559 C 69.7754 -12.2559 69.4824 -12.5977 69.1895 -13.0371 L 56.2012 -32.8613 L 55.957 -32.8613 L 42.8223 -13.0371 C 42.5293 -12.5977 42.1387 -12.2559 41.6016 -12.2559 Z"/>
  </g>
  <g id="Black-S" transform="matrix(1 0 0 1 2884.57 696)">
   <path d="M 48.8281 6.78711 C 71.9727 6.78711 90.8203 -12.0605 90.8203 -35.2051 C 90.8203 -58.3496 71.9727 -77.1973 48.8281 -77.1973 C 25.6836 -77.1973 6.83594 -58.3496 6.83594 -35.2051 C 6.83594 -12.0605 25.6836 6.78711 48.8281 6.78711 Z M 38.4766 -16.8945 C 34.9121 -16.8945 32.5684 -19.1406 32.5684 -22.5098 C 32.5684 -24.0723 33.1543 -25.4883 34.4727 -27.1973 L 40.5762 -35.1074 L 34.4727 -43.1152 C 33.1543 -44.8242 32.5684 -46.2402 32.5684 -47.8027 C 32.5684 -51.1719 34.9121 -53.418 38.4766 -53.418 C 41.1621 -53.418 42.5781 -52.4414 44.6289 -49.1699 L 48.7305 -42.4805 L 49.1211 -42.4805 L 52.9785 -49.1699 C 54.834 -52.3438 56.3477 -53.418 59.1309 -53.418 C 62.6953 -53.418 65.0391 -51.1719 65.0391 -47.8027 C 65.0391 -46.2402 64.4531 -44.8242 63.1348 -43.1152 L 57.0312 -35.1074 L 63.1348 -27.1973 C 64.4531 -25.4883 65.0391 -24.0723 65.0391 -22.5098 C 65.0391 -19.1406 62.6953 -16.8945 59.1309 -16.8945 C 56.3477 -16.8945 54.834 -17.9688 52.9785 -21.1426 L 49.1211 -27.832 L 48.7305 -27.832 L 44.6289 -21.1426 C 42.5781 -17.8711 41.1621 -16.8945 38.4766 -16.8945 Z"/>
  </g>
  <g id="Heavy-S" transform="matrix(1 0 0 1 2588.47 696)">
   <path d="M 48.2422 6.15234 C 70.9961 6.15234 89.5996 -12.4512 89.5996 -35.2051 C 89.5996 -57.959 70.9961 -76.6113 48.1934 -76.6113 C 25.4395 -76.6113 6.83594 -57.959 6.83594 -35.2051 C 6.83594 -12.4512 25.4395 6.15234 48.2422 6.15234 Z M 37.4512 -16.8457 C 34.2773 -16.8457 32.1289 -18.8965 32.1289 -21.875 C 32.1289 -23.291 32.666 -24.5117 33.7891 -26.0254 L 40.8203 -35.3027 L 33.9355 -44.3848 C 32.7637 -45.9473 32.2754 -47.168 32.2754 -48.6328 C 32.2754 -51.6113 34.4238 -53.7109 37.6465 -53.7109 C 40.0391 -53.7109 41.3086 -52.832 43.1641 -50 L 48.2422 -42.0898 L 48.584 -42.0898 L 53.418 -50 C 55.0781 -52.7832 56.4453 -53.7109 58.8867 -53.7109 C 62.0605 -53.7109 64.209 -51.6602 64.209 -48.6328 C 64.209 -47.2656 63.7207 -45.9961 62.5488 -44.5312 L 55.5176 -35.2539 L 62.5488 -26.0742 C 63.6719 -24.6094 64.209 -23.3398 64.209 -21.9238 C 64.209 -18.8965 62.0605 -16.8457 58.8379 -16.8457 C 56.3477 -16.8457 55.0293 -17.8223 53.3203 -20.6055 L 48.4375 -28.4668 L 48.0957 -28.4668 L 42.9688 -20.6055 C 41.1133 -17.7246 39.8438 -16.8457 37.4512 -16.8457 Z"/>
  </g>
  <g id="Bold-S" transform="matrix(1 0 0 1 2292.44 696)">
   <path d="M 47.5586 5.46875 C 69.873 5.46875 88.2324 -12.8906 88.2324 -35.2051 C 88.2324 -57.5684 69.873 -75.9277 47.5098 -75.9277 C 25.1953 -75.9277 6.83594 -57.5684 6.83594 -35.2051 C 6.83594 -12.8906 25.1953 5.46875 47.5586 5.46875 Z M 36.3281 -16.7969 C 33.5938 -16.7969 31.6895 -18.6523 31.6895 -21.2402 C 31.6895 -22.4609 32.0801 -23.4375 33.0566 -24.7559 L 41.1133 -35.5469 L 33.3496 -45.8496 C 32.373 -47.2168 31.9336 -48.2422 31.9336 -49.5605 C 31.9336 -52.1484 33.9355 -54.0527 36.6699 -54.0527 C 38.8184 -54.0527 39.9414 -53.2715 41.4551 -50.9277 L 47.6562 -41.6504 L 47.9492 -41.6504 L 53.8574 -50.8789 C 55.3223 -53.2227 56.4941 -54.0527 58.6426 -54.0527 C 61.377 -54.0527 63.3301 -52.1973 63.3301 -49.6094 C 63.3301 -48.3887 62.8906 -47.3633 61.9141 -46.0449 L 53.8574 -35.4004 L 61.8652 -24.8535 C 62.8418 -23.584 63.2812 -22.5586 63.2812 -21.2891 C 63.2812 -18.6523 61.3281 -16.7969 58.4961 -16.7969 C 56.3965 -16.7969 55.2246 -17.627 53.7109 -20.0195 L 47.6074 -29.1992 L 47.3633 -29.1992 L 41.1133 -20.0195 C 39.502 -17.5781 38.4277 -16.7969 36.3281 -16.7969 Z"/>
  </g>
  <g id="Semibold-S" transform="matrix(1 0 0 1 1996.2 696)">
   <path d="M 47.0703 4.98047 C 69.0918 4.98047 87.3047 -13.1836 87.3047 -35.2539 C 87.3047 -57.2754 69.0918 -75.4883 47.0215 -75.4883 C 25 -75.4883 6.83594 -57.2754 6.83594 -35.2539 C 6.83594 -13.1836 25.0488 4.98047 47.0703 4.98047 Z M 35.498 -16.7969 C 33.1055 -16.7969 31.3477 -18.457 31.3477 -20.752 C 31.3477 -21.875 31.6895 -22.7051 32.5195 -23.8281 L 41.3086 -35.6934 L 32.959 -46.875 C 32.0801 -48.0469 31.6895 -48.9746 31.6895 -50.1465 C 31.6895 -52.4902 33.5449 -54.248 36.0352 -54.248 C 37.9395 -54.248 38.9648 -53.6133 40.332 -51.5625 L 47.2656 -41.3574 L 47.5586 -41.3574 L 54.1992 -51.5137 C 55.4688 -53.5645 56.5918 -54.248 58.4473 -54.248 C 60.8887 -54.248 62.6953 -52.5879 62.6953 -50.2441 C 62.6953 -49.1699 62.3047 -48.2422 61.4746 -47.1191 L 52.7344 -35.498 L 61.4258 -23.9746 C 62.2559 -22.9004 62.5977 -21.9727 62.5977 -20.8496 C 62.5977 -18.457 60.8398 -16.7969 58.252 -16.7969 C 56.3965 -16.7969 55.3711 -17.4805 54.0039 -19.6289 L 47.0703 -29.6875 L 46.875 -29.6875 L 39.8438 -19.6289 C 38.3789 -17.4316 37.4023 -16.7969 35.498 -16.7969 Z"/>
  </g>
  <g id="Medium-S" transform="matrix(1 0 0 1 1699.83 696)">
   <path d="M 46.7285 4.63867 C 68.5547 4.63867 86.6211 -13.4277 86.6211 -35.2539 C 86.6211 -57.0312 68.5059 -75.1465 46.6797 -75.1465 C 24.8535 -75.1465 6.83594 -57.0312 6.83594 -35.2539 C 6.83594 -13.4277 24.9023 4.63867 46.7285 4.63867 Z M 34.9121 -16.748 C 32.7148 -16.748 31.1035 -18.3105 31.1035 -20.4102 C 31.1035 -21.4355 31.3965 -22.168 32.1289 -23.1445 L 41.4551 -35.791 L 32.666 -47.6074 C 31.8359 -48.7305 31.4941 -49.5117 31.4941 -50.6348 C 31.4941 -52.7344 33.252 -54.4434 35.5469 -54.4434 C 37.3047 -54.4434 38.2324 -53.8086 39.4531 -52.0508 L 46.9727 -41.1621 L 47.2168 -41.1621 L 54.4434 -51.9531 C 55.6152 -53.8086 56.6406 -54.4434 58.3008 -54.4434 C 60.5469 -54.4434 62.207 -52.8809 62.207 -50.7812 C 62.207 -49.8047 61.9141 -48.9746 61.1328 -47.9492 L 51.8555 -35.5957 L 61.084 -23.3398 C 61.8164 -22.3633 62.1094 -21.582 62.1094 -20.5078 C 62.1094 -18.3105 60.4492 -16.748 58.1055 -16.748 C 56.4453 -16.748 55.5176 -17.3828 54.1992 -19.2871 L 46.6797 -30.0781 L 46.4844 -30.0781 L 38.8672 -19.2871 C 37.5488 -17.3828 36.6211 -16.748 34.9121 -16.748 Z"/>
  </g>
  <g id="Regular-S" transform="matrix(1 0 0 1 1403.58 696)">
   <path d="M 46.2402 4.15039 C 67.7734 4.15039 85.6934 -13.7207 85.6934 -35.2539 C 85.6934 -56.7871 67.7246 -74.6582 46.1914 -74.6582 C 24.707 -74.6582 6.83594 -56.7871 6.83594 -35.2539 C 6.83594 -13.7207 24.7559 4.15039 46.2402 4.15039 Z M 34.1309 -16.748 C 32.2754 -16.748 30.8105 -18.1152 30.8105 -19.9219 C 30.8105 -20.8496 31.0059 -21.4355 31.5918 -22.2656 L 41.6504 -35.9375 L 32.2754 -48.584 C 31.543 -49.5605 31.2988 -50.2441 31.2988 -51.2695 C 31.2988 -53.125 32.9102 -54.6387 34.9121 -54.6387 C 36.4258 -54.6387 37.3047 -54.1504 38.3301 -52.6855 L 46.582 -40.8691 L 46.8262 -40.8691 L 54.7852 -52.5879 C 55.8105 -54.1504 56.6895 -54.6387 58.1543 -54.6387 C 60.0586 -54.6387 61.5723 -53.2227 61.5723 -51.416 C 61.5723 -50.5859 61.3281 -49.8535 60.6934 -49.0234 L 50.7324 -35.6934 L 60.6445 -22.4609 C 61.2305 -21.6797 61.4746 -20.9961 61.4746 -20.0684 C 61.4746 -18.1152 59.9609 -16.748 57.8613 -16.748 C 56.4453 -16.748 55.6641 -17.2363 54.4922 -18.8965 L 46.1426 -30.5664 L 45.9961 -30.5664 L 37.5977 -18.8965 C 36.4258 -17.2363 35.6445 -16.748 34.1309 -16.748 Z"/>
  </g>
  <g id="Light-S" transform="matrix(1 0 0 1 1107.6 696)">
   <path d="M 45.5078 3.4668 C 66.6992 3.4668 84.2285 -14.0625 84.2285 -35.2051 C 84.2285 -56.3965 66.6504 -73.9258 45.5078 -73.9258 C 24.3164 -73.9258 6.83594 -56.3965 6.83594 -35.2051 C 6.83594 -14.0625 24.3652 3.4668 45.5078 3.4668 Z M 33.6426 -16.8945 C 32.1777 -16.8945 31.0547 -17.9688 31.0547 -19.3848 C 31.0547 -20.1172 31.25 -20.6055 31.6895 -21.1914 L 41.9922 -35.6934 L 32.1777 -49.5117 C 31.6406 -50.2441 31.4453 -50.7324 31.4453 -51.5625 C 31.4453 -52.9785 32.666 -54.1992 34.1797 -54.1992 C 35.4492 -54.1992 36.084 -53.7598 36.8652 -52.6367 L 45.752 -39.6484 L 45.9473 -39.6484 L 54.6387 -52.5879 C 55.4199 -53.7598 56.1035 -54.1992 57.2266 -54.1992 C 58.7891 -54.1992 59.9121 -53.0762 59.9121 -51.6602 C 59.9121 -51.0254 59.7168 -50.4395 59.2285 -49.8047 L 48.9746 -35.5469 L 59.1309 -21.3867 C 59.6191 -20.752 59.8145 -20.2148 59.8145 -19.4824 C 59.8145 -17.9688 58.6426 -16.8945 57.0312 -16.8945 C 55.9082 -16.8945 55.2734 -17.334 54.3945 -18.5547 L 45.459 -31.4453 L 45.3125 -31.4453 L 36.3281 -18.5547 C 35.4492 -17.334 34.8145 -16.8945 33.6426 -16.8945 Z"/>
  </g>
  <g id="Thin-S" transform="matrix(1 0 0 1 811.867 696)">
   <path d="M 44.5801 2.53906 C 65.2832 2.53906 82.2754 -14.4531 82.2754 -35.2051 C 82.2754 -55.9082 65.2344 -72.9004 44.5312 -72.9004 C 23.8281 -72.9004 6.83594 -55.9082 6.83594 -35.2051 C 6.83594 -14.4531 23.877 2.53906 44.5801 2.53906 Z M 33.0078 -17.0898 C 32.0801 -17.0898 31.3965 -17.8223 31.3965 -18.6523 C 31.3965 -19.0918 31.543 -19.4824 31.7871 -19.7754 L 42.4805 -35.4004 L 32.0801 -50.6836 C 31.7383 -51.123 31.5918 -51.416 31.5918 -51.9043 C 31.5918 -52.832 32.3242 -53.5645 33.3008 -53.5645 C 34.082 -53.5645 34.5215 -53.2715 34.9609 -52.5879 L 44.6289 -38.0859 L 44.8242 -38.0859 L 54.4434 -52.5391 C 54.9316 -53.2715 55.3711 -53.5645 56.0547 -53.5645 C 57.0312 -53.5645 57.7148 -52.8809 57.7148 -52.002 C 57.7148 -51.5625 57.5684 -51.1719 57.3242 -50.8301 L 46.6309 -35.3516 L 57.1777 -19.9219 C 57.4707 -19.5312 57.6172 -19.1895 57.6172 -18.75 C 57.6172 -17.8223 56.9336 -17.0898 55.9082 -17.0898 C 55.1758 -17.0898 54.7852 -17.4316 54.2969 -18.1641 L 44.5801 -32.6172 L 44.4336 -32.6172 L 34.668 -18.1641 C 34.1797 -17.4316 33.7402 -17.0898 33.0078 -17.0898 Z"/>
  </g>
  <g id="Ultralight-S" transform="matrix(1 0 0 1 515.644 696)">
   <path d="M 44.043 2.05078 C 64.502 2.05078 81.2988 -14.6973 81.2988 -35.1562 C 81.2988 -55.6152 64.502 -72.3633 44.043 -72.3633 C 23.584 -72.3633 6.83594 -55.6152 6.83594 -35.1562 C 6.83594 -14.6973 23.584 2.05078 44.043 2.05078 Z M 32.7148 -17.1875 C 31.9824 -17.1875 31.543 -17.6758 31.543 -18.2617 C 31.543 -18.5547 31.6895 -18.8965 31.8359 -19.043 L 42.7246 -35.2539 L 31.9824 -51.2695 C 31.8359 -51.5625 31.7383 -51.7578 31.7383 -52.0996 C 31.7383 -52.7344 32.1777 -53.2227 32.8125 -53.2227 C 33.3984 -53.2227 33.6914 -52.9785 33.9844 -52.5391 L 44.043 -37.2559 L 44.2383 -37.2559 L 54.3457 -52.5391 C 54.6387 -52.9785 54.9805 -53.2227 55.4688 -53.2227 C 56.1523 -53.2227 56.5918 -52.7832 56.5918 -52.1973 C 56.5918 -51.9043 56.4453 -51.5625 56.3477 -51.3672 L 45.459 -35.2539 L 56.2012 -19.1895 C 56.3477 -18.8965 56.4453 -18.6523 56.4453 -18.3594 C 56.4453 -17.6758 56.0059 -17.1875 55.3711 -17.1875 C 54.7852 -17.1875 54.4922 -17.4805 54.1992 -17.9199 L 44.1406 -33.2031 L 43.9453 -33.2031 L 33.7891 -17.9199 C 33.4961 -17.4805 33.2031 -17.1875 32.7148 -17.1875 Z"/>
  </g>
 </g>
</svg>
